<svg width="43" height="43" viewBox="0 0 43 43" fill="none" xmlns="http://www.w3.org/2000/svg">
<path d="M0.21286 20.4356C0.21286 10.8022 0.21286 5.98547 3.20559 2.99273C6.19833 0 11.0151 0 20.6485 0H22.3515C31.9849 0 36.8016 0 39.7944 2.99273C42.7871 5.98547 42.7871 10.8022 42.7871 20.4356V22.1386C42.7871 31.7721 42.7871 36.5888 39.7944 39.5815C36.8016 42.5743 31.9849 42.5743 22.3515 42.5743H20.6485C11.0151 42.5743 6.19833 42.5743 3.20559 39.5815C0.21286 36.5888 0.21286 31.7721 0.21286 22.1386V20.4356Z" fill="#0077FF"/>
<path d="M22.866 30.6712C13.1626 30.6712 7.62796 24.019 7.39734 12.9497H12.2579C12.4176 21.0743 16.0008 24.5157 18.8391 25.2253V12.9497H23.416V19.9567C26.2188 19.6551 29.1631 16.4621 30.1566 12.9497H34.7334C33.9706 17.2781 30.7775 20.4711 28.5069 21.7838C30.7775 22.8482 34.4143 25.6333 35.7979 30.6712H30.7598C29.6777 27.3008 26.9816 24.6931 23.416 24.3383V30.6712H22.866Z" fill="white"/>
</svg>
